<?xml version="1.0" encoding="utf-8" standalone="no"?>
<!DOCTYPE svg PUBLIC "-//W3C//DTD SVG 1.1//EN"
  "http://www.w3.org/Graphics/SVG/1.1/DTD/svg11.dtd">
<svg xmlns:xlink="http://www.w3.org/1999/xlink" width="460.8pt" height="345.6pt" viewBox="0 0 460.8 345.6" xmlns="http://www.w3.org/2000/svg" version="1.1">
 <metadata>
  <rdf:RDF xmlns:dc="http://purl.org/dc/elements/1.1/" xmlns:cc="http://creativecommons.org/ns#" xmlns:rdf="http://www.w3.org/1999/02/22-rdf-syntax-ns#">
   <cc:Work>
    <dc:type rdf:resource="http://purl.org/dc/dcmitype/StillImage"/>
    <dc:date>2024-12-22T13:41:28.081479</dc:date>
    <dc:format>image/svg+xml</dc:format>
    <dc:creator>
     <cc:Agent>
      <dc:title>Matplotlib v3.9.2, https://matplotlib.org/</dc:title>
     </cc:Agent>
    </dc:creator>
   </cc:Work>
  </rdf:RDF>
 </metadata>
 <defs>
  <style type="text/css">*{stroke-linejoin: round; stroke-linecap: butt}</style>
 </defs>
 <g id="figure_1">
  <g id="patch_1">
   <path d="M 0 345.6 
L 460.8 345.6 
L 460.8 0 
L 0 0 
z
" style="fill: #ffffff"/>
  </g>
  <g id="axes_1">
   <g id="patch_2">
    <path d="M 57.6 307.584 
L 414.72 307.584 
L 414.72 41.472 
L 57.6 41.472 
z
" style="fill: #ffffff"/>
   </g>
   <g id="matplotlib.axis_1">
    <g id="xtick_1">
     <g id="line2d_1">
      <defs>
       <path id="ma4f087c342" d="M 0 0 
L 0 3.5 
" style="stroke: #000000; stroke-width: 0.8"/>
      </defs>
      <g>
       <use xlink:href="#ma4f087c342" x="73.832727" y="307.584" style="stroke: #000000; stroke-width: 0.8"/>
      </g>
     </g>
     <g id="text_1">
      <!-- 0.0 -->
      <g transform="translate(65.881165 322.182437) scale(0.1 -0.1)">
       <defs>
        <path id="DejaVuSans-30" d="M 2034 4250 
Q 1547 4250 1301 3770 
Q 1056 3291 1056 2328 
Q 1056 1369 1301 889 
Q 1547 409 2034 409 
Q 2525 409 2770 889 
Q 3016 1369 3016 2328 
Q 3016 3291 2770 3770 
Q 2525 4250 2034 4250 
z
M 2034 4750 
Q 2819 4750 3233 4129 
Q 3647 3509 3647 2328 
Q 3647 1150 3233 529 
Q 2819 -91 2034 -91 
Q 1250 -91 836 529 
Q 422 1150 422 2328 
Q 422 3509 836 4129 
Q 1250 4750 2034 4750 
z
" transform="scale(0.015625)"/>
        <path id="DejaVuSans-2e" d="M 684 794 
L 1344 794 
L 1344 0 
L 684 0 
L 684 794 
z
" transform="scale(0.015625)"/>
       </defs>
       <use xlink:href="#DejaVuSans-30"/>
       <use xlink:href="#DejaVuSans-2e" x="63.623047"/>
       <use xlink:href="#DejaVuSans-30" x="95.410156"/>
      </g>
     </g>
    </g>
    <g id="xtick_2">
     <g id="line2d_2">
      <g>
       <use xlink:href="#ma4f087c342" x="138.763636" y="307.584" style="stroke: #000000; stroke-width: 0.8"/>
      </g>
     </g>
     <g id="text_2">
      <!-- 0.2 -->
      <g transform="translate(130.812074 322.182437) scale(0.1 -0.1)">
       <defs>
        <path id="DejaVuSans-32" d="M 1228 531 
L 3431 531 
L 3431 0 
L 469 0 
L 469 531 
Q 828 903 1448 1529 
Q 2069 2156 2228 2338 
Q 2531 2678 2651 2914 
Q 2772 3150 2772 3378 
Q 2772 3750 2511 3984 
Q 2250 4219 1831 4219 
Q 1534 4219 1204 4116 
Q 875 4013 500 3803 
L 500 4441 
Q 881 4594 1212 4672 
Q 1544 4750 1819 4750 
Q 2544 4750 2975 4387 
Q 3406 4025 3406 3419 
Q 3406 3131 3298 2873 
Q 3191 2616 2906 2266 
Q 2828 2175 2409 1742 
Q 1991 1309 1228 531 
z
" transform="scale(0.015625)"/>
       </defs>
       <use xlink:href="#DejaVuSans-30"/>
       <use xlink:href="#DejaVuSans-2e" x="63.623047"/>
       <use xlink:href="#DejaVuSans-32" x="95.410156"/>
      </g>
     </g>
    </g>
    <g id="xtick_3">
     <g id="line2d_3">
      <g>
       <use xlink:href="#ma4f087c342" x="203.694545" y="307.584" style="stroke: #000000; stroke-width: 0.8"/>
      </g>
     </g>
     <g id="text_3">
      <!-- 0.4 -->
      <g transform="translate(195.742983 322.182437) scale(0.1 -0.1)">
       <defs>
        <path id="DejaVuSans-34" d="M 2419 4116 
L 825 1625 
L 2419 1625 
L 2419 4116 
z
M 2253 4666 
L 3047 4666 
L 3047 1625 
L 3713 1625 
L 3713 1100 
L 3047 1100 
L 3047 0 
L 2419 0 
L 2419 1100 
L 313 1100 
L 313 1709 
L 2253 4666 
z
" transform="scale(0.015625)"/>
       </defs>
       <use xlink:href="#DejaVuSans-30"/>
       <use xlink:href="#DejaVuSans-2e" x="63.623047"/>
       <use xlink:href="#DejaVuSans-34" x="95.410156"/>
      </g>
     </g>
    </g>
    <g id="xtick_4">
     <g id="line2d_4">
      <g>
       <use xlink:href="#ma4f087c342" x="268.625455" y="307.584" style="stroke: #000000; stroke-width: 0.8"/>
      </g>
     </g>
     <g id="text_4">
      <!-- 0.6 -->
      <g transform="translate(260.673892 322.182437) scale(0.1 -0.1)">
       <defs>
        <path id="DejaVuSans-36" d="M 2113 2584 
Q 1688 2584 1439 2293 
Q 1191 2003 1191 1497 
Q 1191 994 1439 701 
Q 1688 409 2113 409 
Q 2538 409 2786 701 
Q 3034 994 3034 1497 
Q 3034 2003 2786 2293 
Q 2538 2584 2113 2584 
z
M 3366 4563 
L 3366 3988 
Q 3128 4100 2886 4159 
Q 2644 4219 2406 4219 
Q 1781 4219 1451 3797 
Q 1122 3375 1075 2522 
Q 1259 2794 1537 2939 
Q 1816 3084 2150 3084 
Q 2853 3084 3261 2657 
Q 3669 2231 3669 1497 
Q 3669 778 3244 343 
Q 2819 -91 2113 -91 
Q 1303 -91 875 529 
Q 447 1150 447 2328 
Q 447 3434 972 4092 
Q 1497 4750 2381 4750 
Q 2619 4750 2861 4703 
Q 3103 4656 3366 4563 
z
" transform="scale(0.015625)"/>
       </defs>
       <use xlink:href="#DejaVuSans-30"/>
       <use xlink:href="#DejaVuSans-2e" x="63.623047"/>
       <use xlink:href="#DejaVuSans-36" x="95.410156"/>
      </g>
     </g>
    </g>
    <g id="xtick_5">
     <g id="line2d_5">
      <g>
       <use xlink:href="#ma4f087c342" x="333.556364" y="307.584" style="stroke: #000000; stroke-width: 0.8"/>
      </g>
     </g>
     <g id="text_5">
      <!-- 0.8 -->
      <g transform="translate(325.604801 322.182437) scale(0.1 -0.1)">
       <defs>
        <path id="DejaVuSans-38" d="M 2034 2216 
Q 1584 2216 1326 1975 
Q 1069 1734 1069 1313 
Q 1069 891 1326 650 
Q 1584 409 2034 409 
Q 2484 409 2743 651 
Q 3003 894 3003 1313 
Q 3003 1734 2745 1975 
Q 2488 2216 2034 2216 
z
M 1403 2484 
Q 997 2584 770 2862 
Q 544 3141 544 3541 
Q 544 4100 942 4425 
Q 1341 4750 2034 4750 
Q 2731 4750 3128 4425 
Q 3525 4100 3525 3541 
Q 3525 3141 3298 2862 
Q 3072 2584 2669 2484 
Q 3125 2378 3379 2068 
Q 3634 1759 3634 1313 
Q 3634 634 3220 271 
Q 2806 -91 2034 -91 
Q 1263 -91 848 271 
Q 434 634 434 1313 
Q 434 1759 690 2068 
Q 947 2378 1403 2484 
z
M 1172 3481 
Q 1172 3119 1398 2916 
Q 1625 2713 2034 2713 
Q 2441 2713 2670 2916 
Q 2900 3119 2900 3481 
Q 2900 3844 2670 4047 
Q 2441 4250 2034 4250 
Q 1625 4250 1398 4047 
Q 1172 3844 1172 3481 
z
" transform="scale(0.015625)"/>
       </defs>
       <use xlink:href="#DejaVuSans-30"/>
       <use xlink:href="#DejaVuSans-2e" x="63.623047"/>
       <use xlink:href="#DejaVuSans-38" x="95.410156"/>
      </g>
     </g>
    </g>
    <g id="xtick_6">
     <g id="line2d_6">
      <g>
       <use xlink:href="#ma4f087c342" x="398.487273" y="307.584" style="stroke: #000000; stroke-width: 0.8"/>
      </g>
     </g>
     <g id="text_6">
      <!-- 1.0 -->
      <g transform="translate(390.53571 322.182437) scale(0.1 -0.1)">
       <defs>
        <path id="DejaVuSans-31" d="M 794 531 
L 1825 531 
L 1825 4091 
L 703 3866 
L 703 4441 
L 1819 4666 
L 2450 4666 
L 2450 531 
L 3481 531 
L 3481 0 
L 794 0 
L 794 531 
z
" transform="scale(0.015625)"/>
       </defs>
       <use xlink:href="#DejaVuSans-31"/>
       <use xlink:href="#DejaVuSans-2e" x="63.623047"/>
       <use xlink:href="#DejaVuSans-30" x="95.410156"/>
      </g>
     </g>
    </g>
   </g>
   <g id="matplotlib.axis_2">
    <g id="ytick_1">
     <g id="line2d_7">
      <defs>
       <path id="mc86aed2278" d="M 0 0 
L -3.5 0 
" style="stroke: #000000; stroke-width: 0.8"/>
      </defs>
      <g>
       <use xlink:href="#mc86aed2278" x="57.6" y="273.383962" style="stroke: #000000; stroke-width: 0.8"/>
      </g>
     </g>
     <g id="text_7">
      <!-- 0.0 -->
      <g transform="translate(34.696875 277.183181) scale(0.1 -0.1)">
       <use xlink:href="#DejaVuSans-30"/>
       <use xlink:href="#DejaVuSans-2e" x="63.623047"/>
       <use xlink:href="#DejaVuSans-30" x="95.410156"/>
      </g>
     </g>
    </g>
    <g id="ytick_2">
     <g id="line2d_8">
      <g>
       <use xlink:href="#mc86aed2278" x="57.6" y="229.02465" style="stroke: #000000; stroke-width: 0.8"/>
      </g>
     </g>
     <g id="text_8">
      <!-- 0.2 -->
      <g transform="translate(34.696875 232.823869) scale(0.1 -0.1)">
       <use xlink:href="#DejaVuSans-30"/>
       <use xlink:href="#DejaVuSans-2e" x="63.623047"/>
       <use xlink:href="#DejaVuSans-32" x="95.410156"/>
      </g>
     </g>
    </g>
    <g id="ytick_3">
     <g id="line2d_9">
      <g>
       <use xlink:href="#mc86aed2278" x="57.6" y="184.665338" style="stroke: #000000; stroke-width: 0.8"/>
      </g>
     </g>
     <g id="text_9">
      <!-- 0.4 -->
      <g transform="translate(34.696875 188.464557) scale(0.1 -0.1)">
       <use xlink:href="#DejaVuSans-30"/>
       <use xlink:href="#DejaVuSans-2e" x="63.623047"/>
       <use xlink:href="#DejaVuSans-34" x="95.410156"/>
      </g>
     </g>
    </g>
    <g id="ytick_4">
     <g id="line2d_10">
      <g>
       <use xlink:href="#mc86aed2278" x="57.6" y="140.306026" style="stroke: #000000; stroke-width: 0.8"/>
      </g>
     </g>
     <g id="text_10">
      <!-- 0.6 -->
      <g transform="translate(34.696875 144.105245) scale(0.1 -0.1)">
       <use xlink:href="#DejaVuSans-30"/>
       <use xlink:href="#DejaVuSans-2e" x="63.623047"/>
       <use xlink:href="#DejaVuSans-36" x="95.410156"/>
      </g>
     </g>
    </g>
    <g id="ytick_5">
     <g id="line2d_11">
      <g>
       <use xlink:href="#mc86aed2278" x="57.6" y="95.946714" style="stroke: #000000; stroke-width: 0.8"/>
      </g>
     </g>
     <g id="text_11">
      <!-- 0.8 -->
      <g transform="translate(34.696875 99.745933) scale(0.1 -0.1)">
       <use xlink:href="#DejaVuSans-30"/>
       <use xlink:href="#DejaVuSans-2e" x="63.623047"/>
       <use xlink:href="#DejaVuSans-38" x="95.410156"/>
      </g>
     </g>
    </g>
    <g id="ytick_6">
     <g id="line2d_12">
      <g>
       <use xlink:href="#mc86aed2278" x="57.6" y="51.587402" style="stroke: #000000; stroke-width: 0.8"/>
      </g>
     </g>
     <g id="text_12">
      <!-- 1.0 -->
      <g transform="translate(34.696875 55.386621) scale(0.1 -0.1)">
       <use xlink:href="#DejaVuSans-31"/>
       <use xlink:href="#DejaVuSans-2e" x="63.623047"/>
       <use xlink:href="#DejaVuSans-30" x="95.410156"/>
      </g>
     </g>
    </g>
   </g>
   <g id="line2d_13">
    <path d="M 73.832727 275.258302 
L 74.482686 269.812415 
L 74.807666 268.772391 
L 75.132645 267.10776 
L 75.457625 264.486126 
L 75.782604 262.784547 
L 76.432563 263.911962 
L 76.757543 258.322774 
L 77.082523 256.591785 
L 77.407502 255.734202 
L 77.732482 253.119044 
L 78.057461 253.533541 
L 78.382441 254.470274 
L 78.70742 254.694379 
L 79.357379 247.73626 
L 79.682359 245.866215 
L 80.007338 245.125939 
L 80.332318 247.342446 
L 80.657297 240.937666 
L 80.982277 241.858918 
L 81.307256 244.700221 
L 81.632236 243.797723 
L 81.957215 235.235509 
L 82.282195 235.562706 
L 82.607174 234.508951 
L 82.932154 231.46474 
L 83.257133 231.919462 
L 83.582113 235.693938 
L 83.907093 231.429676 
L 84.232072 228.716173 
L 84.557052 228.704831 
L 84.882031 229.927766 
L 85.207011 223.865408 
L 85.53199 223.792609 
L 85.85697 223.188444 
L 86.181949 218.339995 
L 86.506929 225.74645 
L 86.831908 219.644032 
L 87.156888 224.220395 
L 87.481867 218.626159 
L 87.806847 222.106266 
L 88.131826 219.414081 
L 88.456806 219.250352 
L 88.781785 218.657051 
L 89.106765 213.529831 
L 89.431744 214.153483 
L 89.756724 219.986931 
L 90.081704 214.483384 
L 90.406683 214.585463 
L 90.731663 217.203661 
L 91.056642 211.653965 
L 91.381622 213.704212 
L 91.706601 212.876997 
L 92.031581 217.897373 
L 92.35656 212.198112 
L 92.68154 210.783186 
L 93.006519 213.231318 
L 93.331499 211.423762 
L 93.656478 214.230832 
L 93.981458 210.021366 
L 94.306437 211.458518 
L 94.631417 211.376523 
L 94.956396 209.787549 
L 95.281376 212.806573 
L 95.606355 207.496294 
L 95.931335 212.647965 
L 96.256314 210.90431 
L 96.581294 213.132844 
L 96.906274 211.695118 
L 97.231253 214.941799 
L 97.556233 211.759887 
L 97.881212 210.069733 
L 98.206192 210.701637 
L 98.531171 216.93221 
L 98.856151 211.740295 
L 99.18113 216.042189 
L 99.50611 216.865407 
L 99.831089 213.946769 
L 100.156069 216.025421 
L 100.481048 214.935794 
L 100.806028 217.550809 
L 101.131007 216.225303 
L 101.455987 215.895199 
L 101.780966 220.375771 
L 102.105946 221.49732 
L 102.430925 220.887969 
L 102.755905 220.929592 
L 103.080885 218.137487 
L 103.405864 223.840311 
L 103.730844 221.882546 
L 104.380803 225.061005 
L 104.705782 225.89467 
L 105.030762 226.150717 
L 105.355741 227.027479 
L 105.680721 232.213751 
L 106.0057 227.659398 
L 106.33068 231.46344 
L 106.655659 231.760508 
L 106.980639 233.932843 
L 107.630598 231.774766 
L 107.955577 236.881202 
L 108.280557 236.238716 
L 108.605536 237.064848 
L 108.930516 238.667427 
L 109.255495 239.134736 
L 109.580475 236.665482 
L 109.905455 237.698331 
L 110.230434 244.368494 
L 110.555414 248.072436 
L 110.880393 239.484767 
L 111.530352 247.136413 
L 111.855332 244.800435 
L 112.180311 249.044992 
L 112.505291 247.899916 
L 112.83027 252.880372 
L 113.15525 251.32836 
L 113.480229 252.125626 
L 113.805209 250.185465 
L 114.130188 252.685398 
L 114.455168 251.535191 
L 114.780147 253.268341 
L 115.105127 258.302867 
L 115.430106 255.636372 
L 115.755086 257.044125 
L 116.080066 256.426971 
L 116.405045 261.079014 
L 116.730025 260.626637 
L 117.055004 264.259151 
L 117.379984 264.97342 
L 117.704963 268.266888 
L 118.029943 263.660612 
L 118.354922 270.273209 
L 118.679902 269.556615 
L 119.004881 266.189982 
L 119.329861 267.979341 
L 119.65484 266.353996 
L 119.97982 270.078685 
L 120.304799 272.260146 
L 120.629779 275.203815 
L 120.954758 268.867581 
L 121.929697 277.430056 
L 122.254676 274.842637 
L 122.579656 274.537078 
L 122.904636 279.232628 
L 123.229615 276.510264 
L 123.554595 278.826847 
L 123.879574 279.916526 
L 124.204554 281.521649 
L 124.529533 281.439619 
L 124.854513 280.631152 
L 125.504472 282.897228 
L 125.829451 283.537293 
L 126.154431 280.592645 
L 126.47941 286.931501 
L 126.80439 283.845937 
L 127.129369 284.633949 
L 127.454349 280.537574 
L 127.779328 285.618246 
L 128.104308 287.489746 
L 128.754267 283.109453 
L 129.079247 290.615367 
L 129.404226 288.11982 
L 129.729206 292.94359 
L 130.054185 285.6738 
L 130.379165 288.028685 
L 130.704144 289.230204 
L 131.029124 291.836746 
L 131.354103 289.911408 
L 131.679083 289.029911 
L 132.004062 289.538001 
L 132.329042 292.761415 
L 132.654021 291.848226 
L 132.979001 288.811394 
L 133.30398 289.384095 
L 133.62896 292.890246 
L 133.953939 290.11535 
L 134.278919 288.993599 
L 134.603898 292.40162 
L 134.928878 290.868994 
L 135.253857 288.432682 
L 135.578837 288.917374 
L 135.903817 288.543189 
L 136.228796 289.019372 
L 136.553776 295.488 
L 137.203735 289.305952 
L 137.528714 291.87392 
L 137.853694 287.299335 
L 138.178673 292.782731 
L 138.503653 294.364291 
L 138.828632 292.751159 
L 139.153612 288.757484 
L 139.478591 293.105088 
L 139.803571 291.164936 
L 140.12855 293.806543 
L 140.45353 288.758993 
L 140.778509 290.987044 
L 141.103489 291.881916 
L 141.428468 290.500919 
L 141.753448 287.051528 
L 142.403407 291.9539 
L 142.728387 288.795351 
L 143.053366 289.597908 
L 143.378346 288.289228 
L 143.703325 289.365879 
L 144.028305 288.926907 
L 144.353284 287.865663 
L 144.678264 290.409896 
L 145.003243 283.721018 
L 145.328223 284.971826 
L 145.978182 290.170516 
L 146.303161 289.129383 
L 146.628141 282.596762 
L 146.95312 286.893091 
L 147.2781 286.226368 
L 147.603079 284.965633 
L 147.928059 284.196015 
L 148.253038 286.453498 
L 148.578018 283.104589 
L 148.902998 289.736984 
L 149.227977 279.765168 
L 149.552957 285.012837 
L 149.877936 283.729692 
L 150.202916 287.090335 
L 150.527895 282.895927 
L 150.852875 283.541587 
L 151.177854 286.160842 
L 151.502834 282.814817 
L 151.827813 282.397416 
L 152.152793 284.924721 
L 152.802752 283.326085 
L 153.127731 281.16209 
L 153.452711 285.609015 
L 153.77769 283.289307 
L 154.10267 276.314255 
L 154.427649 284.790452 
L 154.752629 284.324568 
L 155.077609 281.787048 
L 155.727568 281.375838 
L 156.052547 280.473328 
L 156.377527 280.403272 
L 156.702506 280.830221 
L 157.027486 281.033148 
L 157.352465 280.593467 
L 157.677445 281.124414 
L 158.002424 280.169337 
L 158.327404 281.729358 
L 158.652383 278.119014 
L 158.977363 278.111202 
L 159.302342 276.891899 
L 159.627322 282.089084 
L 159.952301 278.644692 
L 160.277281 283.188799 
L 160.60226 279.177577 
L 160.92724 278.778101 
L 161.252219 283.353302 
L 161.577199 278.555315 
L 161.902179 279.45482 
L 162.227158 284.245927 
L 162.552138 277.546872 
L 162.877117 279.155674 
L 163.202097 277.558458 
L 163.527076 278.288378 
L 163.852056 278.518522 
L 164.177035 280.483161 
L 164.502015 281.446307 
L 164.826994 280.202606 
L 165.151974 276.663334 
L 165.476953 277.293353 
L 165.801933 282.383784 
L 166.126912 278.906361 
L 166.451892 280.029023 
L 166.776871 278.835704 
L 167.101851 279.331892 
L 167.42683 277.827685 
L 167.75181 282.229502 
L 168.07679 278.146819 
L 168.401769 280.607173 
L 168.726749 281.064645 
L 169.051728 282.729216 
L 169.376708 276.269472 
L 169.701687 279.653565 
L 170.026667 276.438522 
L 170.351646 281.724962 
L 171.001605 276.991564 
L 171.326585 280.706261 
L 171.651564 278.686974 
L 171.976544 280.919535 
L 172.301523 282.121993 
L 172.626503 278.186648 
L 172.951482 279.97723 
L 173.276462 275.949875 
L 173.601441 278.075289 
L 173.926421 275.615955 
L 174.2514 275.816025 
L 174.57638 277.661878 
L 174.90136 275.237905 
L 175.226339 277.275007 
L 175.551319 275.191656 
L 175.876298 274.880115 
L 176.201278 274.393919 
L 176.526257 274.590381 
L 176.851237 275.307117 
L 177.176216 275.675304 
L 177.501196 277.333938 
L 177.826175 274.031623 
L 178.151155 277.910877 
L 178.476134 270.966804 
L 178.801114 273.953294 
L 179.126093 273.419565 
L 179.451073 275.017927 
L 179.776052 271.227329 
L 180.101032 273.25767 
L 180.426011 271.618567 
L 180.750991 267.018131 
L 181.075971 267.11552 
L 181.40095 271.225874 
L 181.72593 271.064148 
L 182.050909 264.119746 
L 182.375889 266.888829 
L 182.700868 267.611259 
L 183.025848 264.149627 
L 183.350827 265.334201 
L 183.675807 263.146297 
L 184.000786 263.273418 
L 184.325766 260.914461 
L 184.650745 261.099133 
L 184.975725 265.809708 
L 185.300704 262.76928 
L 185.625684 260.790696 
L 185.950663 255.208782 
L 186.275643 257.620995 
L 186.600622 256.812326 
L 186.925602 257.734126 
L 187.250581 251.401847 
L 187.575561 255.381599 
L 187.900541 257.856982 
L 188.22552 253.037433 
L 188.875479 249.634706 
L 189.200459 248.461362 
L 189.525438 245.138431 
L 189.850418 249.074694 
L 190.175397 243.971476 
L 190.500377 243.52794 
L 190.825356 245.228993 
L 191.150336 243.870281 
L 191.475315 245.641136 
L 191.800295 241.750178 
L 192.125274 241.260216 
L 192.450254 239.363218 
L 192.775233 239.301045 
L 193.100213 232.061061 
L 193.425192 231.461068 
L 193.750172 237.76845 
L 194.400131 228.995566 
L 194.725111 228.090941 
L 195.05009 231.618507 
L 195.37507 226.675151 
L 195.700049 225.845199 
L 196.025029 225.493258 
L 196.350008 220.873422 
L 196.674988 220.811723 
L 196.999967 221.10983 
L 197.324947 219.841321 
L 197.649926 219.861343 
L 198.299885 214.383942 
L 198.624865 214.09203 
L 198.949844 212.80686 
L 199.599803 209.107456 
L 199.924783 210.681613 
L 200.249762 209.797074 
L 200.574742 206.815658 
L 200.899722 205.864082 
L 201.224701 202.427205 
L 201.549681 202.629153 
L 201.87466 199.082107 
L 202.19964 204.618972 
L 202.524619 201.581473 
L 202.849599 201.69313 
L 203.174578 197.526338 
L 203.499558 197.487248 
L 203.824537 193.455928 
L 204.149517 197.721491 
L 204.474496 194.857359 
L 204.799476 189.208649 
L 205.124455 190.785154 
L 205.774414 188.60511 
L 206.099394 192.398931 
L 206.424373 187.305173 
L 206.749353 185.962269 
L 207.074333 179.544905 
L 207.399312 182.7421 
L 207.724292 181.839594 
L 208.049271 179.898798 
L 208.374251 183.548875 
L 208.69923 180.789575 
L 209.02421 176.504243 
L 209.349189 175.066815 
L 209.674169 175.830038 
L 209.999148 176.027422 
L 210.324128 174.737681 
L 210.649107 174.874823 
L 210.974087 169.805168 
L 211.299066 174.108778 
L 211.949025 175.849138 
L 212.598984 173.752399 
L 212.923964 174.483643 
L 213.248943 172.752803 
L 213.573923 168.196567 
L 213.898903 169.383415 
L 214.223882 173.211961 
L 214.548862 171.285718 
L 214.873841 172.220589 
L 215.198821 170.91351 
L 215.5238 171.883448 
L 215.84878 163.827072 
L 216.173759 171.028986 
L 216.498739 169.905419 
L 216.823718 171.144812 
L 217.473677 169.400273 
L 217.798657 169.479926 
L 218.123636 170.221521 
L 218.448616 167.907993 
L 218.773595 168.374137 
L 219.098575 165.830167 
L 219.423554 170.793683 
L 219.748534 172.412217 
L 220.073514 170.269692 
L 220.398493 172.007523 
L 220.723473 175.709136 
L 221.048452 167.677018 
L 221.373432 169.330002 
L 221.698411 173.920656 
L 222.023391 174.778616 
L 222.34837 169.262096 
L 222.67335 172.394999 
L 222.998329 172.58103 
L 223.323309 171.471367 
L 223.648288 172.843722 
L 223.973268 172.896481 
L 224.298247 174.998436 
L 224.623227 180.50515 
L 224.948206 176.794995 
L 225.273186 179.163901 
L 225.598165 180.505383 
L 225.923145 180.256698 
L 226.248124 180.489845 
L 226.573104 182.334586 
L 226.898084 186.465005 
L 227.223063 186.649553 
L 227.548043 190.014721 
L 227.873022 184.706112 
L 228.198002 187.11707 
L 228.522981 191.050391 
L 228.847961 191.421885 
L 229.17294 186.40735 
L 229.822899 190.628526 
L 230.147879 195.556516 
L 230.472858 198.69713 
L 230.797838 196.808709 
L 231.447797 201.150639 
L 232.097756 198.265969 
L 232.747715 204.133763 
L 233.072695 203.420824 
L 233.397674 203.309278 
L 233.722654 207.194687 
L 234.047633 205.609332 
L 234.372613 212.478013 
L 234.697592 211.846067 
L 235.022572 213.328412 
L 235.347551 212.131158 
L 235.672531 212.864304 
L 235.99751 217.889337 
L 236.32249 220.143377 
L 236.647469 215.266007 
L 236.972449 222.053099 
L 237.622408 224.784036 
L 237.947387 222.247224 
L 238.272367 225.989045 
L 238.597346 225.734895 
L 238.922326 229.465222 
L 239.247305 230.106464 
L 239.572285 232.940494 
L 239.897265 229.59525 
L 240.222244 234.807817 
L 240.547224 236.779734 
L 240.872203 237.309125 
L 241.197183 239.430599 
L 241.522162 237.685344 
L 241.847142 238.597717 
L 242.172121 240.390211 
L 242.497101 241.185094 
L 242.82208 238.205509 
L 243.14706 244.499753 
L 243.472039 247.591047 
L 243.797019 247.335999 
L 244.446978 249.274264 
L 244.771957 249.146612 
L 245.096937 249.597049 
L 245.421916 254.370616 
L 245.746896 253.410418 
L 246.071876 255.527568 
L 246.396855 254.76876 
L 246.721835 252.69166 
L 247.046814 255.814091 
L 247.371794 256.823497 
L 247.696773 259.036544 
L 248.021753 254.439441 
L 248.671712 261.84933 
L 248.996691 255.098086 
L 249.321671 262.724766 
L 249.64665 260.811947 
L 249.97163 260.159204 
L 250.296609 264.082661 
L 250.621589 262.510578 
L 250.946568 263.752463 
L 251.271548 261.542409 
L 251.596527 261.368821 
L 251.921507 263.744317 
L 252.246486 260.960193 
L 252.571466 269.217586 
L 252.896446 265.127716 
L 253.221425 266.385551 
L 253.546405 264.042322 
L 253.871384 265.344617 
L 254.196364 265.158695 
L 254.521343 265.620947 
L 254.846323 263.753989 
L 255.171302 263.749358 
L 255.496282 262.433084 
L 256.146241 264.674517 
L 256.47122 264.244382 
L 256.7962 266.171216 
L 257.121179 266.408797 
L 257.446159 269.109826 
L 257.771138 263.860618 
L 258.096118 263.811532 
L 258.746077 260.922965 
L 259.721016 264.823578 
L 260.045995 261.426256 
L 260.695954 258.565536 
L 261.020934 262.704277 
L 261.345913 259.225429 
L 261.670893 257.633551 
L 261.995872 257.986682 
L 262.320852 258.073524 
L 262.645831 256.788652 
L 262.970811 253.198766 
L 263.62077 250.839652 
L 263.945749 250.09061 
L 264.270729 248.364756 
L 264.920688 251.335768 
L 265.245667 248.583579 
L 265.570647 247.058418 
L 265.895627 242.171124 
L 266.220606 243.309811 
L 266.870565 240.822895 
L 267.195545 244.98457 
L 267.520524 237.493798 
L 267.845504 241.996675 
L 268.170483 237.104481 
L 268.495463 237.039818 
L 268.820442 236.638659 
L 269.145422 234.514466 
L 269.470401 230.782096 
L 269.795381 234.207903 
L 270.12036 229.943435 
L 270.770319 227.739556 
L 271.095299 226.677257 
L 271.420278 224.66033 
L 271.745258 217.892039 
L 272.070238 223.936902 
L 272.395217 219.034281 
L 273.045176 215.608523 
L 273.370156 217.4167 
L 273.695135 216.942131 
L 274.020115 212.199613 
L 274.345094 211.271731 
L 274.670074 213.349102 
L 274.995053 213.946103 
L 275.320033 205.392864 
L 275.645012 204.563327 
L 275.969992 206.671885 
L 276.294971 203.72707 
L 276.619951 203.142877 
L 276.94493 198.893764 
L 277.26991 199.752085 
L 277.594889 197.967651 
L 277.919869 199.048663 
L 278.569828 197.068227 
L 279.219787 190.974573 
L 279.544767 192.832258 
L 279.869746 191.869035 
L 280.194726 187.611071 
L 280.519705 190.734851 
L 280.844685 186.603663 
L 281.169664 184.528647 
L 281.494644 179.907977 
L 281.819623 182.164819 
L 282.144603 182.971424 
L 282.469582 177.149392 
L 282.794562 177.751122 
L 283.119541 177.047361 
L 283.444521 178.687896 
L 283.7695 175.297727 
L 284.09448 176.808865 
L 284.744439 166.464189 
L 285.069419 174.535558 
L 285.394398 166.432588 
L 285.719378 172.290272 
L 286.044357 167.116622 
L 286.369337 165.594542 
L 286.694316 169.32795 
L 287.019296 164.01568 
L 287.344275 166.657898 
L 287.669255 165.13496 
L 288.319214 160.572886 
L 288.644193 163.815944 
L 288.969173 158.431669 
L 289.619132 155.257559 
L 290.269091 156.777623 
L 290.59407 153.630316 
L 290.91905 154.369042 
L 291.244029 156.518219 
L 291.569009 152.622019 
L 291.893989 150.684982 
L 292.218968 150.394465 
L 292.543948 151.294949 
L 292.868927 149.838162 
L 293.193907 150.231331 
L 293.518886 146.512024 
L 293.843866 151.227116 
L 294.168845 146.585316 
L 294.493825 147.905988 
L 294.818804 144.65499 
L 295.143784 148.575336 
L 295.468763 144.051752 
L 295.793743 146.544391 
L 296.118722 145.222699 
L 296.443702 143.206002 
L 296.768681 142.767066 
L 297.093661 142.87805 
L 297.41864 146.368209 
L 297.74362 146.806605 
L 298.0686 145.580521 
L 298.393579 135.91084 
L 298.718559 142.396483 
L 299.043538 139.716426 
L 299.368518 139.494286 
L 299.693497 140.679812 
L 300.018477 142.300528 
L 300.343456 139.678401 
L 300.668436 138.297272 
L 300.993415 137.955263 
L 301.318395 140.280315 
L 301.643374 139.674797 
L 301.968354 137.091141 
L 302.293333 141.722249 
L 302.943292 138.180351 
L 303.268272 137.69709 
L 303.593251 138.162078 
L 303.918231 135.879996 
L 304.56819 138.684577 
L 304.89317 136.400095 
L 305.543129 136.248854 
L 305.868108 133.873092 
L 306.193088 134.475733 
L 306.518067 134.46246 
L 306.843047 138.985633 
L 307.168026 135.878655 
L 307.493006 138.779099 
L 307.817985 129.943946 
L 308.142965 133.210981 
L 308.467944 132.199848 
L 308.792924 133.58869 
L 309.117903 133.656111 
L 309.442883 132.977093 
L 309.767862 131.885876 
L 310.092842 130.269448 
L 310.417821 130.055832 
L 310.742801 131.760492 
L 311.067781 132.316163 
L 311.39276 128.037472 
L 311.71774 126.448016 
L 312.042719 127.584105 
L 312.367699 134.196786 
L 312.692678 129.202551 
L 313.017658 132.61593 
L 313.342637 130.142426 
L 313.667617 130.667482 
L 313.992596 130.266247 
L 314.317576 130.337195 
L 314.642555 129.641233 
L 314.967535 132.530851 
L 315.292514 125.782318 
L 315.617494 129.762523 
L 315.942473 128.493306 
L 316.267453 127.905354 
L 316.592432 122.977919 
L 316.917412 124.967358 
L 317.242391 126.208739 
L 317.567371 122.308249 
L 317.892351 129.631017 
L 318.21733 127.138227 
L 318.54231 123.45517 
L 318.867289 127.681383 
L 319.192269 124.886837 
L 319.517248 123.957651 
L 319.842228 123.870404 
L 320.167207 125.439634 
L 320.492187 125.068292 
L 320.817166 125.087842 
L 321.142146 120.597476 
L 321.467125 119.525825 
L 321.792105 121.268232 
L 322.117084 118.539546 
L 322.442064 120.011624 
L 323.092023 116.931748 
L 323.417002 119.164299 
L 323.741982 118.749852 
L 324.066962 115.493406 
L 324.716921 121.427544 
L 325.0419 117.281498 
L 325.36688 118.614815 
L 325.691859 116.188919 
L 326.341818 114.533929 
L 326.666798 118.702615 
L 326.991777 117.65548 
L 327.316757 113.018198 
L 327.641736 114.294732 
L 327.966716 110.144953 
L 328.291695 107.633352 
L 328.941654 112.126774 
L 329.266634 109.604959 
L 329.591613 105.166979 
L 329.916593 108.433815 
L 330.241572 108.33396 
L 330.566552 111.890976 
L 330.891532 106.547148 
L 331.541491 108.412096 
L 331.86647 109.361902 
L 332.19145 106.228201 
L 332.516429 106.772305 
L 332.841409 105.04719 
L 333.166388 105.98779 
L 333.491368 102.455933 
L 333.816347 101.939065 
L 334.141327 104.979868 
L 334.466306 100.22098 
L 334.791286 103.860688 
L 335.116265 103.77186 
L 335.441245 102.035045 
L 335.766224 104.149047 
L 336.091204 103.597935 
L 336.416183 99.313916 
L 337.066143 103.333921 
L 337.716102 98.008651 
L 338.041081 100.510006 
L 338.366061 101.192856 
L 338.69104 100.853069 
L 339.01602 102.890794 
L 339.340999 100.810749 
L 339.665979 103.43812 
L 339.990958 100.600282 
L 340.640917 97.914312 
L 340.965897 99.972276 
L 341.290876 104.916086 
L 341.615856 98.583764 
L 341.940835 101.932328 
L 342.265815 98.354787 
L 342.590794 99.813167 
L 342.915774 99.210154 
L 343.240753 99.764045 
L 343.565733 96.256129 
L 344.215692 100.113398 
L 344.540672 101.128872 
L 344.865651 100.494012 
L 345.190631 102.57553 
L 345.51561 99.926478 
L 345.84059 99.765057 
L 346.165569 98.862103 
L 346.815528 104.931561 
L 347.140508 103.020182 
L 347.465487 100.207374 
L 347.790467 99.081054 
L 348.115446 104.415628 
L 348.440426 99.179176 
L 349.090385 106.174334 
L 349.415364 106.720522 
L 349.740344 103.955872 
L 350.065324 104.418078 
L 350.390303 106.603514 
L 350.715283 102.720855 
L 351.040262 105.646906 
L 351.365242 109.935222 
L 351.690221 106.279494 
L 352.015201 109.047291 
L 352.34018 107.58858 
L 352.66516 110.698023 
L 352.990139 106.36114 
L 353.315119 112.922385 
L 353.640098 110.313678 
L 353.965078 111.046572 
L 354.290057 115.264546 
L 354.615037 110.899789 
L 354.940016 110.942104 
L 355.264996 110.586851 
L 355.589975 112.628309 
L 355.914955 110.946215 
L 356.564914 115.240448 
L 356.889894 117.364277 
L 357.214873 115.509916 
L 357.539853 118.858965 
L 357.864832 116.299254 
L 358.189812 119.152584 
L 358.514791 116.318648 
L 358.839771 123.17263 
L 359.16475 123.95394 
L 359.48973 119.215937 
L 359.814709 121.921123 
L 360.139689 126.628835 
L 360.464668 127.525016 
L 360.789648 122.904186 
L 361.439607 128.104674 
L 361.764586 127.882506 
L 362.089566 131.864986 
L 362.414545 129.453456 
L 362.739525 125.192331 
L 363.064505 132.666916 
L 363.389484 126.771723 
L 363.714464 136.473188 
L 364.364423 131.680034 
L 364.689402 135.331328 
L 365.339361 130.361549 
L 365.664341 133.781481 
L 365.98932 134.963799 
L 366.3143 135.582639 
L 366.639279 137.080829 
L 366.964259 141.095368 
L 367.289238 139.81927 
L 367.614218 139.230722 
L 367.939197 132.353946 
L 368.589156 138.381733 
L 368.914136 140.124448 
L 369.239115 143.545982 
L 369.564095 138.505103 
L 370.214054 140.398933 
L 370.539034 138.477827 
L 370.864013 143.510707 
L 371.513972 139.321141 
L 371.838952 139.183871 
L 372.163931 144.108131 
L 372.488911 140.883498 
L 372.81389 144.464725 
L 373.13887 142.461344 
L 373.463849 142.303911 
L 373.788829 141.588098 
L 374.113808 143.155186 
L 374.438788 146.744521 
L 374.763767 144.855735 
L 375.088747 144.812417 
L 375.413726 141.559949 
L 375.738706 141.642622 
L 376.063686 138.599239 
L 376.388665 142.837641 
L 377.363604 140.267453 
L 377.688583 137.436528 
L 378.338542 139.002773 
L 378.663522 139.689953 
L 378.988501 141.965273 
L 379.313481 137.017365 
L 379.63846 139.185521 
L 379.96344 135.209315 
L 380.288419 132.642624 
L 380.613399 135.470997 
L 380.938378 133.51354 
L 381.263358 129.77243 
L 381.588337 137.15271 
L 381.913317 134.662203 
L 382.238296 130.783658 
L 382.563276 130.01369 
L 382.888256 129.983421 
L 383.213235 131.527361 
L 383.538215 129.77902 
L 383.863194 123.938859 
L 384.188174 125.038855 
L 384.513153 125.109488 
L 384.838133 122.78741 
L 385.163112 119.378441 
L 385.488092 120.792336 
L 385.813071 118.843695 
L 386.138051 115.377088 
L 386.46303 119.482402 
L 386.78801 117.997867 
L 387.112989 114.234339 
L 387.437969 112.958115 
L 387.762948 113.053637 
L 388.412907 107.401891 
L 388.737887 107.614278 
L 389.062867 103.832256 
L 389.387846 103.412426 
L 389.712826 101.705139 
L 390.037805 98.752469 
L 390.362785 100.319046 
L 390.687764 93.929341 
L 391.012744 95.178846 
L 391.337723 91.456292 
L 391.662703 92.850251 
L 391.987682 90.39062 
L 392.312662 90.1142 
L 392.637641 82.152467 
L 392.962621 86.11801 
L 393.2876 81.583878 
L 393.61258 81.308214 
L 393.937559 78.034352 
L 394.587518 76.042405 
L 394.912498 75.474318 
L 395.237477 73.578918 
L 395.887437 66.518746 
L 396.212416 64.421809 
L 396.537396 65.129573 
L 396.862375 64.982493 
L 397.187355 63.090671 
L 397.512334 59.798877 
L 397.837314 53.568 
L 398.162293 55.708037 
L 398.487273 53.636931 
L 398.487273 53.636931 
" clip-path="url(#p83fc8a8b90)" style="fill: none; stroke: #1f77b4; stroke-width: 1.5; stroke-linecap: square"/>
   </g>
   <g id="line2d_14">
    <path d="M 73.832727 269.779583 
L 76.107584 259.536971 
L 79.0324 247.216994 
L 81.307256 238.41221 
L 83.257133 231.606072 
L 85.207011 225.714809 
L 86.831908 221.593169 
L 88.131826 218.833981 
L 89.431744 216.549764 
L 90.731663 214.776662 
L 91.706601 213.778185 
L 92.68154 213.064636 
L 93.656478 212.640235 
L 94.631417 212.503743 
L 95.606355 212.655085 
L 96.581294 213.091274 
L 97.556233 213.791566 
L 98.531171 214.757169 
L 99.831089 216.430434 
L 101.131007 218.515803 
L 102.755905 221.654451 
L 104.380803 225.307825 
L 106.33068 230.259379 
L 108.930516 237.557746 
L 112.83027 249.340434 
L 117.704963 263.898001 
L 120.304799 270.917221 
L 122.579656 276.376974 
L 124.529533 280.448093 
L 126.154431 283.363511 
L 127.779328 285.82371 
L 129.404226 287.827146 
L 130.704144 289.091216 
L 132.004062 290.059206 
L 133.30398 290.738289 
L 134.603898 291.1437 
L 135.903817 291.292505 
L 137.203735 291.206545 
L 138.828632 290.81138 
L 140.45353 290.22331 
L 142.403407 289.24757 
L 145.003243 287.654536 
L 151.827813 283.316097 
L 154.427649 282.011421 
L 156.702506 281.132353 
L 158.977363 280.518058 
L 161.252219 280.155218 
L 164.502015 279.874826 
L 168.401769 279.534031 
L 170.351646 279.139284 
L 171.976544 278.599279 
L 173.601441 277.787148 
L 175.226339 276.673005 
L 176.526257 275.532363 
L 177.826175 274.143616 
L 179.126093 272.471684 
L 180.750991 269.96072 
L 182.375889 266.9794 
L 184.000786 263.515157 
L 185.625684 259.571156 
L 187.575561 254.214108 
L 189.525438 248.219277 
L 191.800295 240.539369 
L 194.725111 229.774999 
L 204.474496 193.022521 
L 206.749353 185.748559 
L 208.374251 181.188063 
L 209.999148 177.258585 
L 211.299066 174.631431 
L 212.598984 172.486372 
L 213.898903 170.830113 
L 214.873841 169.930386 
L 215.84878 169.322165 
L 216.823718 169.023874 
L 217.798657 169.0287 
L 218.773595 169.342082 
L 219.748534 169.971351 
L 220.723473 170.90421 
L 221.698411 172.134702 
L 222.998329 174.236467 
L 224.298247 176.86082 
L 225.598165 179.974973 
L 227.223063 184.482611 
L 229.17294 190.659632 
L 231.447797 198.767106 
L 234.372613 210.139751 
L 241.197183 237.194217 
L 243.472039 245.176252 
L 245.421916 251.211272 
L 247.046814 255.530338 
L 248.346732 258.470989 
L 249.64665 260.917692 
L 250.946568 262.838027 
L 251.921507 263.920947 
L 252.896446 264.695769 
L 253.871384 265.143737 
L 254.846323 265.268928 
L 255.821261 265.07698 
L 256.7962 264.570507 
L 257.771138 263.738501 
L 258.746077 262.58773 
L 259.721016 261.134462 
L 261.020934 258.725241 
L 262.320852 255.80812 
L 263.945749 251.506597 
L 265.570647 246.576025 
L 267.520524 239.933918 
L 269.795381 231.371079 
L 273.045176 218.139609 
L 280.519705 187.379584 
L 283.119541 177.677454 
L 285.394398 169.960723 
L 287.669255 163.06389 
L 289.619132 157.829354 
L 291.569009 153.269389 
L 293.193907 149.96563 
L 294.818804 147.088736 
L 296.443702 144.605571 
L 298.0686 142.469427 
L 299.693497 140.632459 
L 301.643374 138.768501 
L 303.918231 136.918331 
L 307.493006 134.370501 
L 312.367699 130.823963 
L 314.642555 128.910303 
L 316.917412 126.69639 
L 319.192269 124.196786 
L 321.792105 120.964102 
L 325.36688 116.087107 
L 331.541491 107.474881 
L 333.816347 104.72747 
L 334.141327 104.357172 
L 334.466306 100.05096 
L 338.366061 94.518385 
L 339.340999 93.758249 
L 339.990958 93.558736 
L 340.965897 92.707275 
L 341.290876 92.829861 
L 341.615856 92.618415 
L 341.940835 92.577287 
L 342.590794 92.293665 
L 344.215692 92.001922 
L 346.490549 93.07876 
L 347.140508 93.873427 
L 347.790467 94.104935 
L 348.115446 94.52908 
L 348.440426 94.699842 
L 348.765405 95.036395 
L 349.415364 96.191275 
L 349.740344 96.515512 
L 351.690221 99.685282 
L 353.965078 104.487273 
L 354.615037 105.996145 
L 356.239934 109.185574 
L 358.514791 114.57756 
L 359.16475 116.646221 
L 359.814709 118.171501 
L 360.789648 121.124724 
L 362.089566 125.036028 
L 363.064505 127.838954 
L 363.389484 128.398813 
L 364.039443 130.51767 
L 367.939197 139.643915 
L 368.589156 140.718457 
L 369.889075 143.141342 
L 371.188993 144.951089 
L 371.838952 145.485273 
L 372.488911 146.286544 
L 373.13887 146.877104 
L 374.113808 147.406308 
L 374.763767 147.983953 
L 375.088747 148.133374 
L 375.738706 148.004297 
L 376.063686 147.758956 
L 376.713645 147.488684 
L 377.363604 147.074922 
L 378.338542 145.911071 
L 379.63846 144.524891 
L 379.96344 143.96483 
L 380.613399 142.575518 
L 382.238296 138.884064 
L 382.888256 137.129934 
L 383.538215 135.518108 
L 385.813071 127.463034 
L 386.46303 124.813543 
L 387.112989 122.187069 
L 388.737887 114.752203 
L 392.637641 93.480618 
L 394.262539 83.556269 
L 398.487273 57.151892 
L 398.487273 57.151892 
" clip-path="url(#p83fc8a8b90)" style="fill: none; stroke: #ff0000; stroke-width: 1.5; stroke-linecap: square"/>
   </g>
   <g id="patch_3">
    <path d="M 57.6 307.584 
L 57.6 41.472 
" style="fill: none; stroke: #000000; stroke-width: 0.8; stroke-linejoin: miter; stroke-linecap: square"/>
   </g>
   <g id="patch_4">
    <path d="M 414.72 307.584 
L 414.72 41.472 
" style="fill: none; stroke: #000000; stroke-width: 0.8; stroke-linejoin: miter; stroke-linecap: square"/>
   </g>
   <g id="patch_5">
    <path d="M 57.6 307.584 
L 414.72 307.584 
" style="fill: none; stroke: #000000; stroke-width: 0.8; stroke-linejoin: miter; stroke-linecap: square"/>
   </g>
   <g id="patch_6">
    <path d="M 57.6 41.472 
L 414.72 41.472 
" style="fill: none; stroke: #000000; stroke-width: 0.8; stroke-linejoin: miter; stroke-linecap: square"/>
   </g>
   <g id="text_13">
    <!-- Singular Spectrum Analysis -->
    <g transform="translate(153.85125 35.472) scale(0.12 -0.12)">
     <defs>
      <path id="DejaVuSans-53" d="M 3425 4513 
L 3425 3897 
Q 3066 4069 2747 4153 
Q 2428 4238 2131 4238 
Q 1616 4238 1336 4038 
Q 1056 3838 1056 3469 
Q 1056 3159 1242 3001 
Q 1428 2844 1947 2747 
L 2328 2669 
Q 3034 2534 3370 2195 
Q 3706 1856 3706 1288 
Q 3706 609 3251 259 
Q 2797 -91 1919 -91 
Q 1588 -91 1214 -16 
Q 841 59 441 206 
L 441 856 
Q 825 641 1194 531 
Q 1563 422 1919 422 
Q 2459 422 2753 634 
Q 3047 847 3047 1241 
Q 3047 1584 2836 1778 
Q 2625 1972 2144 2069 
L 1759 2144 
Q 1053 2284 737 2584 
Q 422 2884 422 3419 
Q 422 4038 858 4394 
Q 1294 4750 2059 4750 
Q 2388 4750 2728 4690 
Q 3069 4631 3425 4513 
z
" transform="scale(0.015625)"/>
      <path id="DejaVuSans-69" d="M 603 3500 
L 1178 3500 
L 1178 0 
L 603 0 
L 603 3500 
z
M 603 4863 
L 1178 4863 
L 1178 4134 
L 603 4134 
L 603 4863 
z
" transform="scale(0.015625)"/>
      <path id="DejaVuSans-6e" d="M 3513 2113 
L 3513 0 
L 2938 0 
L 2938 2094 
Q 2938 2591 2744 2837 
Q 2550 3084 2163 3084 
Q 1697 3084 1428 2787 
Q 1159 2491 1159 1978 
L 1159 0 
L 581 0 
L 581 3500 
L 1159 3500 
L 1159 2956 
Q 1366 3272 1645 3428 
Q 1925 3584 2291 3584 
Q 2894 3584 3203 3211 
Q 3513 2838 3513 2113 
z
" transform="scale(0.015625)"/>
      <path id="DejaVuSans-67" d="M 2906 1791 
Q 2906 2416 2648 2759 
Q 2391 3103 1925 3103 
Q 1463 3103 1205 2759 
Q 947 2416 947 1791 
Q 947 1169 1205 825 
Q 1463 481 1925 481 
Q 2391 481 2648 825 
Q 2906 1169 2906 1791 
z
M 3481 434 
Q 3481 -459 3084 -895 
Q 2688 -1331 1869 -1331 
Q 1566 -1331 1297 -1286 
Q 1028 -1241 775 -1147 
L 775 -588 
Q 1028 -725 1275 -790 
Q 1522 -856 1778 -856 
Q 2344 -856 2625 -561 
Q 2906 -266 2906 331 
L 2906 616 
Q 2728 306 2450 153 
Q 2172 0 1784 0 
Q 1141 0 747 490 
Q 353 981 353 1791 
Q 353 2603 747 3093 
Q 1141 3584 1784 3584 
Q 2172 3584 2450 3431 
Q 2728 3278 2906 2969 
L 2906 3500 
L 3481 3500 
L 3481 434 
z
" transform="scale(0.015625)"/>
      <path id="DejaVuSans-75" d="M 544 1381 
L 544 3500 
L 1119 3500 
L 1119 1403 
Q 1119 906 1312 657 
Q 1506 409 1894 409 
Q 2359 409 2629 706 
Q 2900 1003 2900 1516 
L 2900 3500 
L 3475 3500 
L 3475 0 
L 2900 0 
L 2900 538 
Q 2691 219 2414 64 
Q 2138 -91 1772 -91 
Q 1169 -91 856 284 
Q 544 659 544 1381 
z
M 1991 3584 
L 1991 3584 
z
" transform="scale(0.015625)"/>
      <path id="DejaVuSans-6c" d="M 603 4863 
L 1178 4863 
L 1178 0 
L 603 0 
L 603 4863 
z
" transform="scale(0.015625)"/>
      <path id="DejaVuSans-61" d="M 2194 1759 
Q 1497 1759 1228 1600 
Q 959 1441 959 1056 
Q 959 750 1161 570 
Q 1363 391 1709 391 
Q 2188 391 2477 730 
Q 2766 1069 2766 1631 
L 2766 1759 
L 2194 1759 
z
M 3341 1997 
L 3341 0 
L 2766 0 
L 2766 531 
Q 2569 213 2275 61 
Q 1981 -91 1556 -91 
Q 1019 -91 701 211 
Q 384 513 384 1019 
Q 384 1609 779 1909 
Q 1175 2209 1959 2209 
L 2766 2209 
L 2766 2266 
Q 2766 2663 2505 2880 
Q 2244 3097 1772 3097 
Q 1472 3097 1187 3025 
Q 903 2953 641 2809 
L 641 3341 
Q 956 3463 1253 3523 
Q 1550 3584 1831 3584 
Q 2591 3584 2966 3190 
Q 3341 2797 3341 1997 
z
" transform="scale(0.015625)"/>
      <path id="DejaVuSans-72" d="M 2631 2963 
Q 2534 3019 2420 3045 
Q 2306 3072 2169 3072 
Q 1681 3072 1420 2755 
Q 1159 2438 1159 1844 
L 1159 0 
L 581 0 
L 581 3500 
L 1159 3500 
L 1159 2956 
Q 1341 3275 1631 3429 
Q 1922 3584 2338 3584 
Q 2397 3584 2469 3576 
Q 2541 3569 2628 3553 
L 2631 2963 
z
" transform="scale(0.015625)"/>
      <path id="DejaVuSans-20" transform="scale(0.015625)"/>
      <path id="DejaVuSans-70" d="M 1159 525 
L 1159 -1331 
L 581 -1331 
L 581 3500 
L 1159 3500 
L 1159 2969 
Q 1341 3281 1617 3432 
Q 1894 3584 2278 3584 
Q 2916 3584 3314 3078 
Q 3713 2572 3713 1747 
Q 3713 922 3314 415 
Q 2916 -91 2278 -91 
Q 1894 -91 1617 61 
Q 1341 213 1159 525 
z
M 3116 1747 
Q 3116 2381 2855 2742 
Q 2594 3103 2138 3103 
Q 1681 3103 1420 2742 
Q 1159 2381 1159 1747 
Q 1159 1113 1420 752 
Q 1681 391 2138 391 
Q 2594 391 2855 752 
Q 3116 1113 3116 1747 
z
" transform="scale(0.015625)"/>
      <path id="DejaVuSans-65" d="M 3597 1894 
L 3597 1613 
L 953 1613 
Q 991 1019 1311 708 
Q 1631 397 2203 397 
Q 2534 397 2845 478 
Q 3156 559 3463 722 
L 3463 178 
Q 3153 47 2828 -22 
Q 2503 -91 2169 -91 
Q 1331 -91 842 396 
Q 353 884 353 1716 
Q 353 2575 817 3079 
Q 1281 3584 2069 3584 
Q 2775 3584 3186 3129 
Q 3597 2675 3597 1894 
z
M 3022 2063 
Q 3016 2534 2758 2815 
Q 2500 3097 2075 3097 
Q 1594 3097 1305 2825 
Q 1016 2553 972 2059 
L 3022 2063 
z
" transform="scale(0.015625)"/>
      <path id="DejaVuSans-63" d="M 3122 3366 
L 3122 2828 
Q 2878 2963 2633 3030 
Q 2388 3097 2138 3097 
Q 1578 3097 1268 2742 
Q 959 2388 959 1747 
Q 959 1106 1268 751 
Q 1578 397 2138 397 
Q 2388 397 2633 464 
Q 2878 531 3122 666 
L 3122 134 
Q 2881 22 2623 -34 
Q 2366 -91 2075 -91 
Q 1284 -91 818 406 
Q 353 903 353 1747 
Q 353 2603 823 3093 
Q 1294 3584 2113 3584 
Q 2378 3584 2631 3529 
Q 2884 3475 3122 3366 
z
" transform="scale(0.015625)"/>
      <path id="DejaVuSans-74" d="M 1172 4494 
L 1172 3500 
L 2356 3500 
L 2356 3053 
L 1172 3053 
L 1172 1153 
Q 1172 725 1289 603 
Q 1406 481 1766 481 
L 2356 481 
L 2356 0 
L 1766 0 
Q 1100 0 847 248 
Q 594 497 594 1153 
L 594 3053 
L 172 3053 
L 172 3500 
L 594 3500 
L 594 4494 
L 1172 4494 
z
" transform="scale(0.015625)"/>
      <path id="DejaVuSans-6d" d="M 3328 2828 
Q 3544 3216 3844 3400 
Q 4144 3584 4550 3584 
Q 5097 3584 5394 3201 
Q 5691 2819 5691 2113 
L 5691 0 
L 5113 0 
L 5113 2094 
Q 5113 2597 4934 2840 
Q 4756 3084 4391 3084 
Q 3944 3084 3684 2787 
Q 3425 2491 3425 1978 
L 3425 0 
L 2847 0 
L 2847 2094 
Q 2847 2600 2669 2842 
Q 2491 3084 2119 3084 
Q 1678 3084 1418 2786 
Q 1159 2488 1159 1978 
L 1159 0 
L 581 0 
L 581 3500 
L 1159 3500 
L 1159 2956 
Q 1356 3278 1631 3431 
Q 1906 3584 2284 3584 
Q 2666 3584 2933 3390 
Q 3200 3197 3328 2828 
z
" transform="scale(0.015625)"/>
      <path id="DejaVuSans-41" d="M 2188 4044 
L 1331 1722 
L 3047 1722 
L 2188 4044 
z
M 1831 4666 
L 2547 4666 
L 4325 0 
L 3669 0 
L 3244 1197 
L 1141 1197 
L 716 0 
L 50 0 
L 1831 4666 
z
" transform="scale(0.015625)"/>
      <path id="DejaVuSans-79" d="M 2059 -325 
Q 1816 -950 1584 -1140 
Q 1353 -1331 966 -1331 
L 506 -1331 
L 506 -850 
L 844 -850 
Q 1081 -850 1212 -737 
Q 1344 -625 1503 -206 
L 1606 56 
L 191 3500 
L 800 3500 
L 1894 763 
L 2988 3500 
L 3597 3500 
L 2059 -325 
z
" transform="scale(0.015625)"/>
      <path id="DejaVuSans-73" d="M 2834 3397 
L 2834 2853 
Q 2591 2978 2328 3040 
Q 2066 3103 1784 3103 
Q 1356 3103 1142 2972 
Q 928 2841 928 2578 
Q 928 2378 1081 2264 
Q 1234 2150 1697 2047 
L 1894 2003 
Q 2506 1872 2764 1633 
Q 3022 1394 3022 966 
Q 3022 478 2636 193 
Q 2250 -91 1575 -91 
Q 1294 -91 989 -36 
Q 684 19 347 128 
L 347 722 
Q 666 556 975 473 
Q 1284 391 1588 391 
Q 1994 391 2212 530 
Q 2431 669 2431 922 
Q 2431 1156 2273 1281 
Q 2116 1406 1581 1522 
L 1381 1569 
Q 847 1681 609 1914 
Q 372 2147 372 2553 
Q 372 3047 722 3315 
Q 1072 3584 1716 3584 
Q 2034 3584 2315 3537 
Q 2597 3491 2834 3397 
z
" transform="scale(0.015625)"/>
     </defs>
     <use xlink:href="#DejaVuSans-53"/>
     <use xlink:href="#DejaVuSans-69" x="63.476562"/>
     <use xlink:href="#DejaVuSans-6e" x="91.259766"/>
     <use xlink:href="#DejaVuSans-67" x="154.638672"/>
     <use xlink:href="#DejaVuSans-75" x="218.115234"/>
     <use xlink:href="#DejaVuSans-6c" x="281.494141"/>
     <use xlink:href="#DejaVuSans-61" x="309.277344"/>
     <use xlink:href="#DejaVuSans-72" x="370.556641"/>
     <use xlink:href="#DejaVuSans-20" x="411.669922"/>
     <use xlink:href="#DejaVuSans-53" x="443.457031"/>
     <use xlink:href="#DejaVuSans-70" x="506.933594"/>
     <use xlink:href="#DejaVuSans-65" x="570.410156"/>
     <use xlink:href="#DejaVuSans-63" x="631.933594"/>
     <use xlink:href="#DejaVuSans-74" x="686.914062"/>
     <use xlink:href="#DejaVuSans-72" x="726.123047"/>
     <use xlink:href="#DejaVuSans-75" x="767.236328"/>
     <use xlink:href="#DejaVuSans-6d" x="830.615234"/>
     <use xlink:href="#DejaVuSans-20" x="928.027344"/>
     <use xlink:href="#DejaVuSans-41" x="959.814453"/>
     <use xlink:href="#DejaVuSans-6e" x="1028.222656"/>
     <use xlink:href="#DejaVuSans-61" x="1091.601562"/>
     <use xlink:href="#DejaVuSans-6c" x="1152.880859"/>
     <use xlink:href="#DejaVuSans-79" x="1180.664062"/>
     <use xlink:href="#DejaVuSans-73" x="1239.84375"/>
     <use xlink:href="#DejaVuSans-69" x="1291.943359"/>
     <use xlink:href="#DejaVuSans-73" x="1319.726562"/>
    </g>
   </g>
   <g id="legend_1">
    <g id="patch_7">
     <path d="M 64.6 78.82825 
L 151.560937 78.82825 
Q 153.560937 78.82825 153.560937 76.82825 
L 153.560937 48.472 
Q 153.560937 46.472 151.560937 46.472 
L 64.6 46.472 
Q 62.6 46.472 62.6 48.472 
L 62.6 76.82825 
Q 62.6 78.82825 64.6 78.82825 
z
" style="fill: #ffffff; opacity: 0.8; stroke: #cccccc; stroke-linejoin: miter"/>
    </g>
    <g id="line2d_15">
     <path d="M 66.6 54.570437 
L 76.6 54.570437 
L 86.6 54.570437 
" style="fill: none; stroke: #1f77b4; stroke-width: 1.5; stroke-linecap: square"/>
    </g>
    <g id="text_14">
     <!-- Raw Series -->
     <g transform="translate(94.6 58.070437) scale(0.1 -0.1)">
      <defs>
       <path id="DejaVuSans-52" d="M 2841 2188 
Q 3044 2119 3236 1894 
Q 3428 1669 3622 1275 
L 4263 0 
L 3584 0 
L 2988 1197 
Q 2756 1666 2539 1819 
Q 2322 1972 1947 1972 
L 1259 1972 
L 1259 0 
L 628 0 
L 628 4666 
L 2053 4666 
Q 2853 4666 3247 4331 
Q 3641 3997 3641 3322 
Q 3641 2881 3436 2590 
Q 3231 2300 2841 2188 
z
M 1259 4147 
L 1259 2491 
L 2053 2491 
Q 2509 2491 2742 2702 
Q 2975 2913 2975 3322 
Q 2975 3731 2742 3939 
Q 2509 4147 2053 4147 
L 1259 4147 
z
" transform="scale(0.015625)"/>
       <path id="DejaVuSans-77" d="M 269 3500 
L 844 3500 
L 1563 769 
L 2278 3500 
L 2956 3500 
L 3675 769 
L 4391 3500 
L 4966 3500 
L 4050 0 
L 3372 0 
L 2619 2869 
L 1863 0 
L 1184 0 
L 269 3500 
z
" transform="scale(0.015625)"/>
      </defs>
      <use xlink:href="#DejaVuSans-52"/>
      <use xlink:href="#DejaVuSans-61" x="67.232422"/>
      <use xlink:href="#DejaVuSans-77" x="128.511719"/>
      <use xlink:href="#DejaVuSans-20" x="210.298828"/>
      <use xlink:href="#DejaVuSans-53" x="242.085938"/>
      <use xlink:href="#DejaVuSans-65" x="305.5625"/>
      <use xlink:href="#DejaVuSans-72" x="367.085938"/>
      <use xlink:href="#DejaVuSans-69" x="408.199219"/>
      <use xlink:href="#DejaVuSans-65" x="435.982422"/>
      <use xlink:href="#DejaVuSans-73" x="497.505859"/>
     </g>
    </g>
    <g id="line2d_16">
     <path d="M 66.6 69.248562 
L 76.6 69.248562 
L 86.6 69.248562 
" style="fill: none; stroke: #ff0000; stroke-width: 1.5; stroke-linecap: square"/>
    </g>
    <g id="text_15">
     <!-- SSA -->
     <g transform="translate(94.6 72.748562) scale(0.1 -0.1)">
      <use xlink:href="#DejaVuSans-53"/>
      <use xlink:href="#DejaVuSans-53" x="63.476562"/>
      <use xlink:href="#DejaVuSans-41" x="128.828125"/>
     </g>
    </g>
   </g>
  </g>
 </g>
 <defs>
  <clipPath id="p83fc8a8b90">
   <rect x="57.6" y="41.472" width="357.12" height="266.112"/>
  </clipPath>
 </defs>
</svg>
